<svg xmlns="http://www.w3.org/2000/svg" width="11.251" height="11.251" viewBox="0 0 11.251 11.251">
  <path id="Trazado_438" data-name="Trazado 438" d="M10.92-3.045a1.125,1.125,0,0,1,0,1.591,1.115,1.115,0,0,1-.795.329,1.12,1.12,0,0,1-.8-.33l-3.7-3.7-3.7,3.7a1.115,1.115,0,0,1-.8.33,1.115,1.115,0,0,1-.8-.33,1.125,1.125,0,0,1,0-1.591L4.035-6.752.33-10.455a1.125,1.125,0,0,1,0-1.591,1.125,1.125,0,0,1,1.591,0l3.7,3.707L9.33-12.045a1.125,1.125,0,0,1,1.591,0,1.125,1.125,0,0,1,0,1.591L7.216-6.748l3.7,3.7Z" transform="translate(0 12.376)" fill="#262626"/>
</svg>
