<svg xmlns="http://www.w3.org/2000/svg" xmlns:xlink="http://www.w3.org/1999/xlink" width="339.69" height="236.669" viewBox="0 0 339.69 236.669">
  <defs>
    <linearGradient id="linear-gradient" x1="0.5" y1="0.035" x2="0.5" y2="0.97" gradientUnits="objectBoundingBox">
      <stop offset="0" stop-color="#ffc121"/>
      <stop offset="0.23" stop-color="#f4b044"/>
      <stop offset="0.74" stop-color="#db879c"/>
      <stop offset="1" stop-color="#ce72cc"/>
    </linearGradient>
    <linearGradient id="linear-gradient-2" x1="0.5" x2="0.5" y2="1" gradientUnits="objectBoundingBox">
      <stop offset="0" stop-color="#fff"/>
      <stop offset="1" stop-color="#79bdd2"/>
    </linearGradient>
  </defs>
  <g id="Grupo_448" data-name="Grupo 448" transform="translate(-212.31 -468)">
    <g id="procesando" transform="translate(212.31 467.997)">
      <g id="b" transform="translate(0 0.003)">
        <g id="c">
          <g id="Grupo_438" data-name="Grupo 438">
            <path id="Trazado_738" data-name="Trazado 738" d="M338.411,199.714a80.679,80.679,0,0,0-79.565-94.987,79.964,79.964,0,0,0-14.357,1.32A130.837,130.837,0,0,0,0,171.016a110.181,110.181,0,0,0,3.606,28.689H338.411Z" transform="translate(0 -7.004)" fill-rule="evenodd" fill="url(#linear-gradient)"/>
            <path id="Trazado_739" data-name="Trazado 739" d="M248.023,191.32c-6.584,3.012-13.862,4.563-20.983,6.2,2.434,8.944,5.487,19.019,7.847,23.128,4.381,7.649,11.238,14.159,18.887,13.507s-1.3-29.126-1.3-29.126-1.865-5.974-4.447-13.705Z" transform="translate(-39.707 -33.463)" fill="#a3d8e8"/>
            <path id="Trazado_740" data-name="Trazado 740" d="M233.352,149.459c-11.42-9.58-11.865,21.065-11.222,24.324.3,1.51,1.931,8.383,4.018,16.09,7.121-1.634,20.521-3.276,27.7-9.208-9.027-14.571-17.723-28.862-20.5-31.2Z" transform="translate(-38.816 -25.819)" fill="#20caf2"/>
            <path id="Trazado_741" data-name="Trazado 741" d="M228.946,149.494a6.845,6.845,0,0,0-1.675-1.064c-5.487,3.837-5.644,22.963-5.14,25.5.3,1.51,1.931,8.383,4.018,16.09,2.97-.685,7.046-1.37,11.3-2.368-8.474-14.563-5.768-35.859-8.507-38.153Z" transform="translate(-38.815 -25.962)" fill="#30accf"/>
            <path id="Trazado_742" data-name="Trazado 742" d="M175.377,133.868c7.781-2.121,14.159-6.345,18.466-13.334-2.319-1.46-4.546-2.962-6.527-4.423-10.578-7.806,5.058-18.342,5.058-18.342L167.72,70.64l-13.408,40.538s-4.167,4.274-9.051,8.779c7.343,9.225,16.642,17.591,30.125,13.92Z" transform="translate(-25.404 -12.357)" fill="#caebf8"/>
            <path id="Trazado_743" data-name="Trazado 743" d="M165.22,90.2c4.01,8.5,8.812,15.438,21.8,20.265.38-5.363,5.536-9.522,5.536-9.522l-26.3-26.3Z" transform="translate(-28.895 -13.057)" fill="#a3d8e8"/>
            <path id="Trazado_744" data-name="Trazado 744" d="M209.227,143.1s-11.642-5.768-21.676-12.113c-4.307,6.989-10.685,11.213-18.466,13.334C155.6,148,146.3,139.633,138.96,130.4c-4.6,4.233-9.819,8.672-12.806,9.959l-14.324,8.6s-5.726,3.5,0,11.667,17.847,23.813,53.327,22.93,47.823-17.187,48.7-31.734c2.2-7.055-4.629-8.721-4.629-8.721Z" transform="translate(-19.113 -22.808)" fill="#20caf2"/>
            <path id="Trazado_745" data-name="Trazado 745" d="M125.46,175.97l3.135,46.264,78.674-.132s-7.4-25.075,4.8-54.012c-30.7,3.54-86.612,7.872-86.612,7.872Z" transform="translate(-21.941 -29.4)" fill="#20caf2"/>
            <path id="Trazado_746" data-name="Trazado 746" d="M24.98,212.148l4.439,30.975,31.973-.99L63.653,206.9Z" transform="translate(-4.369 -36.187)" fill="#b4e3f6"/>
            <path id="Trazado_747" data-name="Trazado 747" d="M28.531,193.22c-1.5.825-4.926-.817-6.131-1.741-2.574-2-4.885-7.921-3.3-11.04,1.675-3.3,5.149-4.447,8.6-3.581a6.348,6.348,0,0,1-3.251-6.609c.726-3.474,4.753-3.663,6.461-.924-6.007-2.55-6.7-14.835,1.691-13.26-1.832-6.89,7.888-7.847,11.816-4.414,1.931,1.683,2.649,8.664-.734,9.852.965-4.86,11.42-4.827,13.788-1.634,2.154,2.913,2.22,10.726-2.871,10.619,2.657-.437,5.8-.908,6.444,2.286.421,2.088-.792,5.437-2.979,6.122,5.891-.182,5.644,8.449.677,9.563.4,2.64-13.8,5.256-16.42,5.561-4.208.5-7.888,1.419-12.146,1.213-.413-.528-1.213-.908-1.65-1.609" transform="translate(-3.249 -26.188)" fill="#fdc400"/>
            <path id="Trazado_748" data-name="Trazado 748" d="M41.168,174.886c.107-1.4-2.83-2.657-3.886-1.724-1.114.982-.561,4.439,1.328,4.159a3.268,3.268,0,0,0-3.441,3.573c.132,3.234,4.992,3.375,5.289.33-.05.866-.091,2.178.809,2.591,1.254.569,2.9-.487,3.366-1.617a2.149,2.149,0,0,0-1.221-3.028c.759.149,1.436.248,1.931-.429a1.645,1.645,0,0,0,.1-1.8c-.388-.421-1.213-.371-1.724-.421,2.772.248,3.028-2.855.462-3.424-1.832-.4-2.2.759-3.119,2.005" transform="translate(-6.15 -30.231)" fill="#caebf8"/>
            <path id="Trazado_749" data-name="Trazado 749" d="M59.127,182.174c-.116-.751-1.254-1.254-1.98-1.3-1.172-.074-1.724.726-2.088,1.8-.545,1.617.479,4.109,2.517,3.754a3.116,3.116,0,0,0-.784.008c-.223,1.65,2.055,2.071,2.228.652-.347,1.84,2.2,2.1,3.168,1.089.561-.586,1.1-2.03.388-2.649,1.353.7,1.576-2.31.5-2.97a5.431,5.431,0,0,0-2.632-.264c.627-.049-.792-1.7-1.114.083" transform="translate(-9.604 -31.636)" fill="#caebf8"/>
            <path id="Trazado_750" data-name="Trazado 750" d="M43.1,177.949c-.924-.569-1.733-.454-2.046.66-.4,1.419,1.246,3.135,2.426,1.724,1.122-1.353-.132-2.756-1.625-2.583" transform="translate(-7.17 -31.066)" fill="#a6cad9"/>
            <path id="Trazado_751" data-name="Trazado 751" d="M60.326,183.847c-.759-.446-1.46.124-1.526.941-.091,1.271,1.436,1.485,2.121.52.71-1-.561-1.518-1.386-1.46" transform="translate(-10.283 -32.128)" fill="#a6cad9"/>
            <g id="Grupo_437" data-name="Grupo 437" transform="translate(133.48)">
              <path id="Trazado_752" data-name="Trazado 752" d="M204.4,16.133c-11.23-2.789-29.093-.157-33.747,15.025s-17.063,49.3,25.694,68.261c0,0,20.157-21.75,25.009-54.144,5.462-23.846-16.964-29.143-16.964-29.143Z" transform="translate(-162.399 -2.653)" fill="#caebf8"/>
              <path id="Trazado_753" data-name="Trazado 753" d="M182.793,47.85c-.932-4.934,6.428-14.7,11.626-19.844l-8.862-10.19a5.3,5.3,0,0,0-1.064-.206c-6.139,2.286-11.428,6.683-13.664,13.977a127.125,127.125,0,0,0-4.489,17.294A81,81,0,0,1,177.4,50.713s-.7,2.838-2.665,14.307C185.07,56.192,183.725,52.784,182.793,47.85Z" transform="translate(-162.571 -3.083)" fill="#a3d8e8"/>
              <path id="Trazado_754" data-name="Trazado 754" d="M176.6,56.77c-4.711-3.416-9.6-5.693-12.723-3.9,0,0-2.9,11.684-1.889,13.218s11.106,4.786,11.106,4.786l3.5-14.1Z" transform="translate(-161.772 -9.139)" fill="#caebf8"/>
              <path id="Trazado_755" data-name="Trazado 755" d="M187.4,23.879C182.653,18.269,176.192,7.2,201.045.149c5.305-1.5-5.025,9.1-5.025,9.1s20.587-12.137,24.621-3.771c.982,4.835-4.711,8.862-4.711,8.862,10.66-.017,25.587-1.807,23.26,11.882-2.492,4.241-9.984,3.482-9.984,3.482s10.941,9.613,1.015,9.811c-.4,4.761-4.728,5.735-5.908,3.87.19-2.31.215-9.357.215-9.357S190.962,28.1,187.389,23.871Z" transform="translate(-165.476 -0.003)" fill="#2795b3"/>
              <path id="Trazado_756" data-name="Trazado 756" d="M202.23,58.62c2.409-1.5,8.358-3.036,10.157-.215,0,0,.3,1.444-1.848,1.444a59.124,59.124,0,0,1-6.617-.866c-.751-.066-1.386.074-1.691-.363Z" transform="translate(-168.848 -9.942)" fill="#2795b3"/>
              <path id="Trazado_757" data-name="Trazado 757" d="M225.6,61.5c-.363.743-.487,1.246.52,1.733s3.177,1.089,4.076,1.782,1.964.965,1.229-.173-1.064-2.64-2.211-2.805-3.606-.536-3.606-.536Z" transform="translate(-172.89 -10.759)" fill="#2795b3"/>
              <path id="Trazado_758" data-name="Trazado 758" d="M217.341,64.909c1.213,4.225-1.106,9.233.033,12.071l.446,1.3s.338,1.271-.083,1.766a3.409,3.409,0,0,1-4.1.231,3.319,3.319,0,0,1-1.667-2.616s4.406-13.227,5.363-12.748Z" transform="translate(-170.551 -11.354)" fill="#f5fdff"/>
              <path id="Trazado_759" data-name="Trazado 759" d="M206.749,65.838c-.71-.041-1.048-.083-1.757,2.533s.9,1.89.9,1.89.924.586,1.37-1.914.784-2.418-.5-2.5Z" transform="translate(-169.299 -11.515)" fill="#2795b3"/>
              <path id="Trazado_760" data-name="Trazado 760" d="M225.827,69.018c-.594-.041-.875-.066-1.469,2.121s.751,1.576.751,1.576.776.487,1.147-1.6S226.907,69.084,225.827,69.018Z" transform="translate(-172.691 -12.071)" fill="#2795b3"/>
              <path id="Trazado_761" data-name="Trazado 761" d="M196.313,82.6c1.774,1.452,11.007,7.6,16.395,6.98,0,0-3.8,7.616-9.58,6.535s-8.787-15.133-6.807-13.515Z" transform="translate(-167.708 -14.426)" fill="#2795b3"/>
              <path id="Trazado_762" data-name="Trazado 762" d="M211.053,90.539C204.518,95.333,200.211,88.5,198.8,85.3,198.8,85.3,205.261,90.168,211.053,90.539Z" transform="translate(-168.248 -14.921)" fill="#f5fdff"/>
            </g>
            <path id="Trazado_763" data-name="Trazado 763" d="M119.868,156.16c13.095,8.086,15.718,19.217,15.718,30.958s4.918,33,4.918,33l-11.692.025L119.86,156.16Z" transform="translate(-20.962 -27.314)" fill="#30accf"/>
            <path id="Trazado_764" data-name="Trazado 764" d="M17.41,201.886l1.815,9.423s45.464-4.53,45.464-4.711.726-13.317.726-13.317l-48,8.606Z" transform="translate(-3.045 -33.805)" fill="#a6cad9" opacity="0.6"/>
            <path id="Trazado_765" data-name="Trazado 765" d="M17.41,201.886l1.815,9.423s45.464-4.53,45.464-4.711.726-13.317.726-13.317l-48,8.606Z" transform="translate(-3.045 -33.805)" fill="#a6cad9"/>
            <path id="Trazado_766" data-name="Trazado 766" d="M321.8,257.124,337.027,271.7s8.259,7.624-4.645,7.368-91.612,0-91.612,0H193.714L171.7,257.05l150.1.083Z" transform="translate(-30.028 -44.958)" fill="#a6cad9" opacity="0.2"/>
            <path id="Trazado_767" data-name="Trazado 767" d="M92.684,227.17c-1.312,7.005,46.421,28.9,46.421,28.9s4.381,13.573,17.954,11.387c7.005,2.525,17.93,5.149,22.748.338S157.5,244.472,157.5,244.472l-38.755-26.709,5.462-17.352h0l.025-.066a52.071,52.071,0,0,1-22-7.005c-4.678,15.628-8.952,30.678-9.547,33.846Z" transform="translate(-16.205 -33.816)" fill="#caebf8"/>
            <path id="Trazado_768" data-name="Trazado 768" d="M243.363,232.346c-1.312,7.005,37.345,19,37.345,19s4.381,13.573,17.954,11.387c7.005,2.525,17.93,5.149,22.748.338S299.1,239.747,299.1,239.747L258.694,222.94" transform="translate(-42.556 -38.993)" fill="#a3d8e8"/>
            <path id="Trazado_769" data-name="Trazado 769" d="M281.39,201.886h.14l.025-.066" transform="translate(-49.212 -35.299)" fill="#caebf8"/>
            <path id="Trazado_770" data-name="Trazado 770" d="M124.047,193.151c0-9.192.033-17.864-.231-23.128-.545-11.023-11.469-18.705-16.453-14.555a191.549,191.549,0,0,0-12.393,40.6C104.409,197.7,118.568,195.477,124.047,193.151Z" transform="translate(-16.609 -26.993)" fill="#20caf2"/>
            <path id="Trazado_771" data-name="Trazado 771" d="M226.36,251.39h40.216l-13,19.7Z" transform="translate(-39.588 -43.968)" fill="#caebf8"/>
            <path id="Trazado_772" data-name="Trazado 772" d="M247.75,255.65h40.224l-13.012,19.7Z" transform="translate(-43.329 -44.713)" fill="#f5fdff"/>
            <path id="Trazado_773" data-name="Trazado 773" d="M273.315,186.99l-20.9,69.821-26.065-17.5V244.4l25.182,18.1h94.492s3.391.569,5.66-6.221,18.392-65.918,18.392-65.918,1.419-7.071-7.352-7.071-82.866-.974-82.866-.974-5.231-.107-6.535,4.662Z" transform="translate(-39.586 -31.889)" fill="#20caf2"/>
          </g>
        </g>
      </g>
    </g>
    <circle id="Elipse_30" data-name="Elipse 30" cx="36" cy="36" r="36" transform="translate(216 484)" fill="url(#linear-gradient-2)"/>
    <text id="_" data-name="" transform="translate(216 547)" fill="#0049ac" font-size="72" font-family="FontAwesome6Free-Regular, 'Font Awesome \36  Free'"><tspan x="0" y="0"></tspan></text>
  </g>
</svg>
