<svg xmlns="http://www.w3.org/2000/svg" width="17.999" height="14" viewBox="0 0 17.999 14">
  <path id="Trazado_435" data-name="Trazado 435" d="M8.738-8.988A2.46,2.46,0,0,1,9-9a2.983,2.983,0,0,1,3,3A3,3,0,0,1,9-3,2.983,2.983,0,0,1,6-6a2.46,2.46,0,0,1,.012-.262A2.294,2.294,0,0,0,7-6,2,2,0,0,0,9-8,2.294,2.294,0,0,0,8.738-8.988Zm6.281-1.494a12.107,12.107,0,0,1,2.9,4.1.994.994,0,0,1,0,.769,12.67,12.67,0,0,1-2.9,4.1A8.793,8.793,0,0,1,9,1,8.791,8.791,0,0,1,2.982-1.519a12.719,12.719,0,0,1-2.9-4.1,1,1,0,0,1,0-.769,12.151,12.151,0,0,1,2.9-4.1A8.8,8.8,0,0,1,9-13,8.8,8.8,0,0,1,15.019-10.481ZM9-10.5A4.5,4.5,0,0,0,4.5-6,4.5,4.5,0,0,0,9-1.5,4.5,4.5,0,0,0,13.5-6,4.5,4.5,0,0,0,9-10.5Z" transform="translate(0 13)" fill="#fff"/>
</svg>
