<svg xmlns="http://www.w3.org/2000/svg" width="181.696" height="215.575" viewBox="0 0 181.696 215.575">
  <g id="descarga" transform="translate(-198.386 -165.264)">
    <path id="Trazado_237" data-name="Trazado 237" d="M375.6,361.418c-.593-.442-3.524-3.343-5.664-5.461-1.994-1.972-3.982-3.942-5.131-5-1.6-1.474-2.42-5.644-3.073-8.995-.2-1.029-.4-2.038-.615-3-.875-3.764-4.569-8.647-6.791-11.33,3.612-3.608,11.46-12.705,11.988-24.026.543-11.612-2.493-23.155-3.426-26.383a2.123,2.123,0,0,1,.092-1.411l2.511-6.446a12.529,12.529,0,0,0,.9-4.679v-2.4a3.182,3.182,0,0,1,.5-1.73l10.713-16.9c.164-.264,3.992-6.525-.128-11.886-3.928-5.145-16.415.448-21.6,3.091-.078.042-.152.084-.228.134l-1.482.969-5.6,1.285a29.614,29.614,0,0,0-4.222-1l-.505-.1a2.507,2.507,0,0,0-.368,0l.581-2.29c0-.012,0-.022,0-.034l13.32-52.943.078-.35-.008,0c0-.016.01-.032.012-.048h0c0-.008,0-.014,0-.022s.01-.032.012-.046c.939-6.481-13.516-12.172-27.594-14.233a83.449,83.449,0,0,0-12.126-.935c-10.895,0-17.768,2.471-18.4,6.661a4.228,4.228,0,0,0-.012.785L296.8,227.239l-.1,2.006a1.983,1.983,0,0,0-.312-.082,21.752,21.752,0,0,0-3.47.03,40.74,40.74,0,0,0-4.128-6.318,72.954,72.954,0,0,0-9.816-10.018,2.422,2.422,0,0,0-.37-.238c-1.141-.591-7.029-3.419-10.951-1.207-3.686,2.134-7.746,8.885-8.687,12.409-.871,3.333-1.1,14.821-1.1,15.892,0,0-.218,1.938-.483,4.216-1.127,2.9-12.333,31.883-14.187,41.144-.977,4.885-.893,13.1-.813,21.043.07,7.047.152,15.035-.715,17.132a62.5,62.5,0,0,1-4.715,8.333,58.7,58.7,0,0,0-3.89,6.741c-2.086,4.731-4.3,15.648-3.077,21.034a2.42,2.42,0,0,0,2.36,1.886,2.488,2.488,0,0,0,.537-.06,2.421,2.421,0,0,0,1.826-2.9c-.867-3.834.889-13.71,2.781-18.006a56.3,56.3,0,0,1,3.556-6.116,65.719,65.719,0,0,0,5.095-9.059c1.189-2.875,1.187-9.109,1.087-19.041-.072-7.337-.158-15.652.719-20.042,1.073-5.362,5.678-18.287,9.323-28.115.386,1.642.805,3.173,1.087,4.16a2.424,2.424,0,0,0,2.326,1.752,2.508,2.508,0,0,0,.671-.094,2.422,2.422,0,0,0,1.656-3c-1-3.48-1.98-7.908-1.844-8.931.228-1.131.589-3.908.935-6.591l.042-.312c.294-2.475.535-4.639.549-4.867.082-4.685.418-12.891.959-14.967.731-2.739,4.244-8.19,6.409-9.442,1.025-.581,3.982.156,6.112,1.2A74.169,74.169,0,0,1,285.087,226a32.084,32.084,0,0,1,3.053,4.569c-3.387,1.457-6.3,3.628-6.915,8.062a10.535,10.535,0,0,0,2.284,7.856c5,6.751,17.418,12.307,32.4,14.5a86.689,86.689,0,0,0,12.7.967,59.966,59.966,0,0,0,14.084-1.528c8.156-2,13.049-5.8,13.778-10.717.278-1.912-.036-4.691-2.456-7.84.909-.611,1.734-1.161,2.41-1.606a0,0,0,0,1,0,0c.012-.008.026-.008.036-.014l.14-.092c.064-.046.136-.076.194-.126l1.371-.9c7.229-3.662,14.337-5.4,15.444-4.4,2.064,2.683-.05,6.235-.126,6.358l-10.707,16.885a8.064,8.064,0,0,0-1.247,4.324v2.4a7.761,7.761,0,0,1-.559,2.9l-2.5,6.407a6.941,6.941,0,0,0-.262,4.543c.891,3.079,3.756,13.971,3.249,24.84-.571,12.3-11.944,22.125-12.06,22.223a2.372,2.372,0,0,0-.679,2.705l-8.861.32a2.412,2.412,0,0,0-4.711.132.2.2,0,0,1-.008.036l-5.646.2a1.817,1.817,0,0,0,.06,3.632h.064l4.435-.16a21.848,21.848,0,0,1-1.171,2.575L328,333.872a1.816,1.816,0,0,0-.853,3.53l3.456.831a9.515,9.515,0,0,1-2.354,1.8l-3.526-2.088a1.816,1.816,0,0,0-1.858,3.121l.248.148a16.81,16.81,0,0,1-2.418-.008c-5.121-.366-7.238-3.225-7.726-4.016l3.442-3.069a3.08,3.08,0,0,0,1.011-2.525,3.012,3.012,0,0,0-1.327-2.29,11.228,11.228,0,0,0-5.463-1.752,10.842,10.842,0,0,0-4.645.5A3.086,3.086,0,0,0,304,330.254a3.036,3.036,0,0,0,.753,2.827l3.424,3.63c-1.986,1.119-6.341,3.187-10.669,2.725a1.8,1.8,0,0,0,.593-2.056,1.819,1.819,0,0,0-2.346-1.049l-3.253,1.243a15.438,15.438,0,0,1-3.2-2.551h2.164a1.816,1.816,0,1,0,0-3.632h-4.475a12.277,12.277,0,0,1-.571-1.81l1.85.567a1.841,1.841,0,0,0,.535.08,1.817,1.817,0,0,0,.529-3.554l-3.437-1.051-.306-3.093a2.421,2.421,0,0,0-4.819.476l.106,1.083-14.9-4.559a1.818,1.818,0,1,0-1.063,3.476l16.353,5a20.818,20.818,0,0,0,.617,3.385H263.177a1.816,1.816,0,1,0,0,3.632h20.212a16.856,16.856,0,0,0,3.772,4.593l-17.774,6.789a1.818,1.818,0,0,0,.647,3.516,1.842,1.842,0,0,0,.647-.118l20.029-7.652c.33.186.671.38,1.015.551a14.845,14.845,0,0,0,2.909,1.083,18.164,18.164,0,0,0,13.938,6.741c4.166,0,8.437-1.508,12.7-4.451.254.01.5.032.763.032a25,25,0,0,0,5.083-.549,14.545,14.545,0,0,0,2.2-.677l12.8,7.574a1.816,1.816,0,1,0,1.852-3.125l-11.129-6.585a16.574,16.574,0,0,0,2.979-3.263l16.413,3.948a1.847,1.847,0,0,0,.426.05,1.816,1.816,0,0,0,.424-3.582l-15.342-3.692a29.261,29.261,0,0,0,1.514-3.924l9.912-.356a1.8,1.8,0,0,0,1.558-1.053c2.456,2.991,5.131,6.823,5.678,9.171.2.9.392,1.866.583,2.843.871,4.463,1.776,9.079,4.547,11.63,1.119,1.031,3.059,2.951,5,4.875,4.953,4.9,5.944,5.83,6.623,6.19a2.574,2.574,0,0,0,1.2.294,2.428,2.428,0,0,0,2.166-1.247,2.332,2.332,0,0,0-.921-3.217Zm-56.7-121.01a42.145,42.145,0,0,0,6.186.46c6.527,0,12.1-1.578,15.642-3.81l-1.221,4.813c0,.022,0,.042,0,.064s-.016.036-.02.056a3.581,3.581,0,0,1-1.584,2.27c-3.5,2.607-11.5,3.516-19.884,2.278s-15.782-4.411-18.377-7.914a3.538,3.538,0,0,1-.851-2.6c0-.02,0-.038,0-.058s.014-.038.014-.058l.24-5.125c3.516,4.006,10.06,8.19,19.86,9.624Zm-16.581,103.6a27.362,27.362,0,0,0,7.68-2.753,13.855,13.855,0,0,0,4.258,3.2,14.911,14.911,0,0,1-5.692,1.239,12.428,12.428,0,0,1-6.246-1.688Z" transform="translate(-15.266)"/>
    <path id="Trazado_238" data-name="Trazado 238" d="M414.681,434.082c2.106,1.748,5.073,2.118,7.192,2.118.663,0,1.309-.034,1.916-.092a11.336,11.336,0,0,0,5.109-1.576c2.829-1.722,4.278-5.267,4.649-6.3.733-2,1.437-4.324,1.091-6.321a4,4,0,0,0-2.893-3.207,21.255,21.255,0,0,0-5.954-1.638,12.686,12.686,0,0,0-10.249,3.6c-2.43,2.553-5.019,9.282-1.291,13.049a3.366,3.366,0,0,0,.43.368Zm4.356-10.062a6.549,6.549,0,0,1,1.063-.877,4.257,4.257,0,0,0-.865,2.559,4.324,4.324,0,1,0,6.423-3.748,16.75,16.75,0,0,1,4.22,1.219,12.78,12.78,0,0,1-.885,3.4,7.967,7.967,0,0,1-2.659,3.842,6.813,6.813,0,0,1-3.019.863c-.452.044-.937.07-1.445.07a6.854,6.854,0,0,1-4.188-1.059c-1.067-1.075-.068-4.777,1.355-6.272Z" transform="translate(-104.54 -122.983)"/>
    <path id="Trazado_239" data-name="Trazado 239" d="M335.312,423.763a14.89,14.89,0,0,0,6.032,1.321,11.279,11.279,0,0,0,6.138-1.718c2-1.3,2.214-4.5,2.04-6.969a12.116,12.116,0,0,0-2.37-6.376c-3.418-4.549-9.275-6-16.861-4.034-1.185.322-2.807.761-1.736,8.9a11.564,11.564,0,0,0,2.346,5.666,12.108,12.108,0,0,0,4.411,3.215Zm2.316-13.746a4.331,4.331,0,1,0,3.592,1.087,6.947,6.947,0,0,1,2.064,1.828,7.3,7.3,0,0,1,1.407,3.822,9.891,9.891,0,0,1-.162,2.733,6.517,6.517,0,0,1-3.183.749,10.114,10.114,0,0,1-4.038-.891,7.371,7.371,0,0,1-2.655-1.862,6.85,6.85,0,0,1-1.3-3.275c-.078-.6-.224-2.553-.25-3.894a16.081,16.081,0,0,1,4.523-.3Z" transform="translate(-63.42 -117.18)"/>
    <path id="Trazado_240" data-name="Trazado 240" d="M377.958,522.231a3.19,3.19,0,0,0-2.7-.43,56.454,56.454,0,0,0-15.6,7.652,9.381,9.381,0,0,0-5.92-2.707,9.185,9.185,0,0,0-6.3,1.938A55.183,55.183,0,0,0,332.964,519a3.021,3.021,0,0,0-2.531-.02,3.282,3.282,0,0,0-2.01,3.355,29.424,29.424,0,0,1-.39,8.873,22.914,22.914,0,0,0-.436,6.475,28.9,28.9,0,0,1-.767,8.853,3.235,3.235,0,0,0,.921,3.129,3.181,3.181,0,0,0,2.206.893,3.319,3.319,0,0,0,.909-.13,55.706,55.706,0,0,0,15.648-7.674,9.406,9.406,0,0,0,5.98,2.753c.2.012.392.016.585.016a9.368,9.368,0,0,0,5.676-1.932,55.361,55.361,0,0,0,14.443,9.638,3.226,3.226,0,0,0,1.3.276,3.169,3.169,0,0,0,1.886-.625A3.229,3.229,0,0,0,377.7,549.9a29.421,29.421,0,0,1,.418-8.893,22.82,22.82,0,0,0,.41-6.455,30.36,30.36,0,0,1,.765-8.853,3.25,3.25,0,0,0-1.337-3.468Z" transform="translate(-62.703 -172.669)"/>
    <path id="Trazado_241" data-name="Trazado 241" d="M219.718,244.758a2.422,2.422,0,1,0,4.843,0v-8.493h-4.845Z" transform="translate(-10.42 -34.686)"/>
    <path id="Trazado_242" data-name="Trazado 242" d="M224.564,207.877a2.422,2.422,0,0,0-4.843,0v8.493h4.845Z" transform="translate(-10.423 -19.635)"/>
    <path id="Trazado_243" data-name="Trazado 243" d="M200.807,226.8a2.422,2.422,0,1,0,0,4.843H209.3V226.8Z" transform="translate(0 -30.06)"/>
    <path id="Trazado_244" data-name="Trazado 244" d="M240.105,229.217a2.422,2.422,0,0,0-2.422-2.422h-8.493v4.845h8.493A2.424,2.424,0,0,0,240.105,229.217Z" transform="translate(-15.049 -30.06)"/>
    <path id="Trazado_245" data-name="Trazado 245" d="M522.808,494.13a2.422,2.422,0,0,0,4.843,0v-8.492h-4.845Z" transform="translate(-158.487 -156.51)"/>
    <path id="Trazado_246" data-name="Trazado 246" d="M527.654,457.237a2.422,2.422,0,1,0-4.843,0v8.493h4.845Z" transform="translate(-158.489 -141.453)"/>
    <path id="Trazado_247" data-name="Trazado 247" d="M503.9,476.16a2.422,2.422,0,0,0,0,4.843l8.493,0V476.16Z" transform="translate(-148.066 -151.88)"/>
    <path id="Trazado_248" data-name="Trazado 248" d="M540.778,476.16h-8.493v4.845h8.493a2.423,2.423,0,0,0,0-4.845Z" transform="translate(-163.118 -151.88)"/>
  </g>
</svg>
