<svg xmlns="http://www.w3.org/2000/svg" width="14" height="14" viewBox="0 0 14 14">
  <path id="Trazado_442" data-name="Trazado 442" d="M0-5.25a7,7,0,0,1,7-7,7,7,0,0,1,7,7,7,7,0,0,1-7,7A7,7,0,0,1,0-5.25ZM4.785-6.56,6.073-5.275,4.785-3.965a.632.632,0,0,0,0,.905.594.594,0,0,0,.905,0L6.975-4.323,8.285-3.06a.594.594,0,0,0,.905,0,.594.594,0,0,0,0-.905L7.927-5.275,9.19-6.56a.594.594,0,0,0,0-.905.632.632,0,0,0-.905,0L6.975-6.177,5.69-7.465a.632.632,0,0,0-.905,0A.632.632,0,0,0,4.785-6.56Z" transform="translate(0 12.25)" fill="#0f113e"/>
</svg>
