<svg xmlns="http://www.w3.org/2000/svg" width="80" height="80" viewBox="0 0 80 80">
  <path id="Trazado_464" data-name="Trazado 464" d="M47.5-62.5A7.5,7.5,0,0,1,40-55a7.5,7.5,0,0,1-7.5-7.5A7.5,7.5,0,0,1,40-70,7.5,7.5,0,0,1,47.5-62.5Zm0,65A7.5,7.5,0,1,1,40-5,7.5,7.5,0,0,1,47.5,2.5ZM0-30a7.5,7.5,0,0,1,7.5-7.5A7.5,7.5,0,0,1,15-30a7.5,7.5,0,0,1-7.5,7.5A7.5,7.5,0,0,1,0-30Zm80,0a7.5,7.5,0,0,1-7.5,7.5A7.5,7.5,0,0,1,65-30a7.5,7.5,0,0,1,7.5-7.5A7.5,7.5,0,0,1,80-30ZM11.716-1.719a7.5,7.5,0,0,1,0-10.609,7.52,7.52,0,0,1,10.613,0,7.516,7.516,0,0,1,0,10.609A7.492,7.492,0,0,1,11.716-1.719ZM22.328-47.672a7.52,7.52,0,0,1-10.613,0,7.509,7.509,0,0,1,0-10.612,7.506,7.506,0,0,1,10.613,0A7.52,7.52,0,0,1,22.328-47.672ZM57.672-12.328a7.516,7.516,0,0,1,10.609,0,7.488,7.488,0,0,1,0,10.609,7.488,7.488,0,0,1-10.609,0A7.516,7.516,0,0,1,57.672-12.328Z" transform="translate(0 70)" fill="#343781"/>
</svg>
