<svg xmlns="http://www.w3.org/2000/svg" width="18" height="18.002" viewBox="0 0 18 18.002">
  <path id="Trazado_828" data-name="Trazado 828" d="M17.589-.151,13.38-4.359a7.31,7.31,0,0,0,1.176-5.087,7.353,7.353,0,0,0-6.288-6.243A7.319,7.319,0,0,0,.061-7.481,7.351,7.351,0,0,0,6.3-1.192a7.309,7.309,0,0,0,5.087-1.176L15.6,1.84A1.407,1.407,0,0,0,17.589-.151ZM2.781-8.437a4.505,4.505,0,0,1,4.5-4.5,4.505,4.505,0,0,1,4.5,4.5,4.505,4.505,0,0,1-4.5,4.5A4.5,4.5,0,0,1,2.781-8.437Z" transform="translate(0 15.75)" fill="#262626"/>
</svg>
