<svg xmlns="http://www.w3.org/2000/svg" width="22.5" height="18" viewBox="0 0 22.5 18">
  <path id="Trazado_463" data-name="Trazado 463" d="M5.3-12.489a9.6,9.6,0,0,1,5.952-2.136,9.9,9.9,0,0,1,6.771,2.834,13.62,13.62,0,0,1,3.266,4.609,1.118,1.118,0,0,1,0,.865,13.939,13.939,0,0,1-2.809,4.163l3.7,2.9a.844.844,0,1,1-1.041,1.329L.323-14.242A.844.844,0,0,1,.18-15.427a.844.844,0,0,1,1.185-.144L5.3-12.489Zm2.545,1.994,3.175,2.489a2.276,2.276,0,0,0,.232-1.027,2.566,2.566,0,0,0-.3-1.079,2.858,2.858,0,0,1,.3-.046,3.376,3.376,0,0,1,3.375,3.375A3,3,0,0,1,14.312-5.4L15.7-4.335a5.07,5.07,0,0,0,.612-2.447,5.084,5.084,0,0,0-5.062-5.062A5.065,5.065,0,0,0,7.843-10.494ZM11.25,1.125A9.893,9.893,0,0,1,4.479-1.709,14.317,14.317,0,0,1,1.211-6.318a1.124,1.124,0,0,1,0-.865,13.368,13.368,0,0,1,1.71-2.89L6.237-7.46a5.139,5.139,0,0,0-.049.679A5.071,5.071,0,0,0,11.25-1.687a5.049,5.049,0,0,0,1.863-.355L15.687-.018A9.241,9.241,0,0,1,11.25,1.125Z" transform="translate(0 15.75)" fill="#fff"/>
</svg>
