<svg xmlns="http://www.w3.org/2000/svg" width="22" height="22" viewBox="0 0 22 22">
  <path id="Trazado_825" data-name="Trazado 825" d="M6.875-8.25A4.078,4.078,0,0,1,11-12.375,4.1,4.1,0,0,1,15.125-8.25,4.126,4.126,0,0,1,11-4.125,4.1,4.1,0,0,1,6.875-8.25ZM22-8.25a11,11,0,0,1-11,11,11,11,0,0,1-11-11,11,11,0,0,1,11-11A11,11,0,0,1,22-8.25ZM11-17.187A8.936,8.936,0,0,0,2.063-8.25,8.936,8.936,0,0,0,11,.688,8.936,8.936,0,0,0,19.938-8.25,8.936,8.936,0,0,0,11-17.187Z" transform="translate(0 19.25)" fill="#0049ac"/>
</svg>
