<svg xmlns="http://www.w3.org/2000/svg" width="60" height="60" viewBox="0 0 60 60">
  <path id="Trazado_455" data-name="Trazado 455" d="M28.57-12.68a3.289,3.289,0,0,1-4.641,0l-7.5-7.5a3.289,3.289,0,0,1,0-4.641,3.289,3.289,0,0,1,4.641,0l5.18,5.18L38.93-32.32a3.289,3.289,0,0,1,4.641,0,3.289,3.289,0,0,1,0,4.641ZM60-22.5a30,30,0,0,1-30,30,30,30,0,0,1-30-30,30,30,0,0,1,30-30A30,30,0,0,1,60-22.5ZM30-46.875A24.371,24.371,0,0,0,5.625-22.5,24.371,24.371,0,0,0,30,1.875,24.371,24.371,0,0,0,54.375-22.5,24.371,24.371,0,0,0,30-46.875Z" transform="translate(0 52.5)" fill="#2748ac" opacity="0.7"/>
</svg>
