<svg xmlns="http://www.w3.org/2000/svg" width="17.999" height="15.75" viewBox="0 0 17.999 15.75">
  <path id="Trazado_437" data-name="Trazado 437" d="M17.8-1.09l-7.5-12.8a1.514,1.514,0,0,0-2.6,0L.2-1.09A1.476,1.476,0,0,0,1.5,1.125h15A1.479,1.479,0,0,0,17.8-1.09ZM8.156-9.844A.844.844,0,0,1,9-10.687a.845.845,0,0,1,.844.844v4.5a.838.838,0,0,1-.812.844.892.892,0,0,1-.875-.844ZM9-1.125A1.105,1.105,0,0,1,7.895-2.23,1.105,1.105,0,0,1,9-3.336,1.105,1.105,0,0,1,10.105-2.23,1.106,1.106,0,0,1,9-1.125Z" transform="translate(-0.001 14.625)" fill="#262626"/>
</svg>
