<svg xmlns="http://www.w3.org/2000/svg" width="17.999" height="15.75" viewBox="0 0 17.999 15.75">
  <path id="Trazado_814" data-name="Trazado 814" d="M5.625-1.125H3.375A1.125,1.125,0,0,1,2.25-2.25v-9a1.125,1.125,0,0,1,1.125-1.125h2.25A1.125,1.125,0,0,0,6.75-13.5a1.124,1.124,0,0,0-1.125-1.125H3.375A3.375,3.375,0,0,0,0-11.25v9A3.375,3.375,0,0,0,3.375,1.125h2.25A1.125,1.125,0,0,0,6.75,0,1.124,1.124,0,0,0,5.625-1.125ZM17.67-7.545l-4.5-4.5a1.125,1.125,0,0,0-1.591,0,1.125,1.125,0,0,0,0,1.591l2.582,2.579H6.75A1.124,1.124,0,0,0,5.625-6.75,1.124,1.124,0,0,0,6.75-5.625h7.411l-2.58,2.58a1.125,1.125,0,0,0,0,1.591,1.125,1.125,0,0,0,1.591,0l4.5-4.5A1.126,1.126,0,0,0,17.67-7.545Z" transform="translate(0 14.625)" fill="#fff"/>
</svg>
