<svg id="Grupo_53" data-name="Grupo 53" xmlns="http://www.w3.org/2000/svg" xmlns:xlink="http://www.w3.org/1999/xlink" width="78.95" height="80" viewBox="0 0 78.95 80">
  <defs>
    <clipPath id="clip-path">
      <rect id="Rectángulo_136" data-name="Rectángulo 136" width="78.95" height="80" fill="none"/>
    </clipPath>
  </defs>
  <g id="Grupo_53-2" data-name="Grupo 53" clip-path="url(#clip-path)">
    <path id="Trazado_404" data-name="Trazado 404" d="M4.334,167.764a4.51,4.51,0,0,1-1.745-.329,4,4,0,0,1-1.363-.92A4.127,4.127,0,0,1,.34,165.1a5.372,5.372,0,0,1,.007-3.645,4.285,4.285,0,0,1,.893-1.43,4.021,4.021,0,0,1,1.369-.933,4.474,4.474,0,0,1,1.752-.336,4.511,4.511,0,0,1,1.745.329A4.008,4.008,0,0,1,7.469,160a4.134,4.134,0,0,1,.886,1.423,5.445,5.445,0,0,1,0,3.652,4.141,4.141,0,0,1-.893,1.43,4.018,4.018,0,0,1-1.376.927,4.561,4.561,0,0,1-1.752.329m.027-.792a3.366,3.366,0,0,0,1.356-.268,3.124,3.124,0,0,0,1.067-.759,3.461,3.461,0,0,0,.7-1.168,4.313,4.313,0,0,0,.249-1.5,4.241,4.241,0,0,0-.255-1.49,3.622,3.622,0,0,0-.7-1.181A3.227,3.227,0,0,0,5.7,159.83a3.276,3.276,0,0,0-1.363-.282,3.294,3.294,0,0,0-1.356.275,3.2,3.2,0,0,0-1.067.765,3.47,3.47,0,0,0-.7,1.168,4.317,4.317,0,0,0-.249,1.5,4.221,4.221,0,0,0,.255,1.5,3.628,3.628,0,0,0,.7,1.175A3.13,3.13,0,0,0,3,166.7a3.333,3.333,0,0,0,1.363.275" transform="translate(-0.014 -87.764)" fill="#fff"/>
    <path id="Trazado_405" data-name="Trazado 405" d="M21.576,161.493a.468.468,0,0,1-.329-.087.355.355,0,0,1-.087-.262v-.081a.357.357,0,0,1,.087-.262.468.468,0,0,1,.329-.087h.94v-.591a2.606,2.606,0,0,1,.476-1.685,1.706,1.706,0,0,1,1.4-.584,1.642,1.642,0,0,1,.96.228.648.648,0,0,1,.316.524.442.442,0,0,1-.114.336q-.114.107-.141.08a1.383,1.383,0,0,0-.423-.268,1.465,1.465,0,0,0-.6-.121A.882.882,0,0,0,23.6,159a2.166,2.166,0,0,0-.241,1.168v.55h1.289a.467.467,0,0,1,.329.087.357.357,0,0,1,.088.262v.081a.355.355,0,0,1-.088.262.467.467,0,0,1-.329.087H23.375v5.249a.425.425,0,0,1-.1.329.41.41,0,0,1-.275.087h-.094a.435.435,0,0,1-.282-.087.407.407,0,0,1-.107-.329v-5.249Z" transform="translate(-11.698 -87.266)" fill="#fff"/>
    <path id="Trazado_406" data-name="Trazado 406" d="M33.192,159.251a.5.5,0,0,1-.564-.577.516.516,0,0,1,.591-.577.5.5,0,0,1,.564.577.516.516,0,0,1-.591.577M32.87,167.2a.407.407,0,0,1-.107-.329v-5.665a.406.406,0,0,1,.107-.329.431.431,0,0,1,.282-.088h.094a.431.431,0,0,1,.282.088.407.407,0,0,1,.107.329v5.665a.408.408,0,0,1-.107.329.434.434,0,0,1-.282.087h-.094a.433.433,0,0,1-.282-.087" transform="translate(-18.038 -87.399)" fill="#fff"/>
    <path id="Trazado_407" data-name="Trazado 407" d="M41.382,170.6a3.323,3.323,0,0,1-1.3-.255,3.163,3.163,0,0,1-1.739-1.772,3.56,3.56,0,0,1-.248-1.343,3.509,3.509,0,0,1,.248-1.336,3.224,3.224,0,0,1,.691-1.061,3.124,3.124,0,0,1,1.047-.7,3.393,3.393,0,0,1,1.3-.248,3.447,3.447,0,0,1,1.215.195,3,3,0,0,1,.859.477,2.082,2.082,0,0,1,.51.584,1.115,1.115,0,0,1,.168.517.317.317,0,0,1-.087.235.639.639,0,0,1-.195.134.6.6,0,0,1-.195.054c-.059,0-.092,0-.1-.007a2.585,2.585,0,0,0-.309-.55,2.133,2.133,0,0,0-.449-.45,2.016,2.016,0,0,0-.611-.3,2.75,2.75,0,0,0-.806-.107,2.414,2.414,0,0,0-.953.188,2.238,2.238,0,0,0-.766.531,2.461,2.461,0,0,0-.5.812,3.04,3.04,0,0,0,0,2.067,2.541,2.541,0,0,0,.5.819,2.293,2.293,0,0,0,.758.543,2.325,2.325,0,0,0,.96.195,2.749,2.749,0,0,0,.806-.107,2.006,2.006,0,0,0,.611-.3,2.132,2.132,0,0,0,.449-.45,2.566,2.566,0,0,0,.309-.55q.013-.026.1-.013a.818.818,0,0,1,.195.061.639.639,0,0,1,.195.134.317.317,0,0,1,.087.235,1.113,1.113,0,0,1-.168.517,2.082,2.082,0,0,1-.51.584,3,3,0,0,1-.859.477,3.457,3.457,0,0,1-1.215.195" transform="translate(-21.059 -90.603)" fill="#fff"/>
    <path id="Trazado_408" data-name="Trazado 408" d="M55.018,159.251a.5.5,0,0,1-.564-.577.516.516,0,0,1,.591-.577.5.5,0,0,1,.564.577.516.516,0,0,1-.591.577M54.7,167.2a.407.407,0,0,1-.107-.329v-5.665a.406.406,0,0,1,.107-.329.431.431,0,0,1,.282-.088h.094a.431.431,0,0,1,.282.088.407.407,0,0,1,.107.329v5.665a.408.408,0,0,1-.107.329.434.434,0,0,1-.282.087h-.094a.433.433,0,0,1-.282-.087" transform="translate(-30.104 -87.399)" fill="#fff"/>
    <path id="Trazado_409" data-name="Trazado 409" d="M62.618,164.212a2.493,2.493,0,0,1,1.3-.322,2.839,2.839,0,0,1,1.108.2,2.1,2.1,0,0,1,.792.571,2.476,2.476,0,0,1,.477.893,3.916,3.916,0,0,1,.161,1.155v3.37a.408.408,0,0,1-.107.329.433.433,0,0,1-.282.087h-.094a.433.433,0,0,1-.282-.087.408.408,0,0,1-.107-.329v-3.316a2.3,2.3,0,0,0-.45-1.51,1.553,1.553,0,0,0-1.269-.544,2.191,2.191,0,0,0-1.289.376,2.425,2.425,0,0,0-.819.98v4.014a.408.408,0,0,1-.108.329.433.433,0,0,1-.282.087h-.094a.434.434,0,0,1-.282-.087.408.408,0,0,1-.107-.329v-5.988c0-.017.029-.038.087-.06a.579.579,0,0,1,.208-.034.552.552,0,0,1,.4.161.984.984,0,0,1,.168.685v.2a2.654,2.654,0,0,1,.879-.832" transform="translate(-33.655 -90.603)" fill="#fff"/>
    <path id="Trazado_410" data-name="Trazado 410" d="M80.92,166.4a1.659,1.659,0,0,0-.463-1.269,1.876,1.876,0,0,0-1.336-.436,2.2,2.2,0,0,0-1.275.343,2.4,2.4,0,0,0-.765.839.827.827,0,0,1-.249-.074.533.533,0,0,1-.168-.154.458.458,0,0,1-.08-.282.8.8,0,0,1,.168-.423,1.967,1.967,0,0,1,.5-.483,3.183,3.183,0,0,1,.819-.4,3.454,3.454,0,0,1,1.121-.168,2.639,2.639,0,0,1,1.906.658,2.413,2.413,0,0,1,.685,1.826V170.4c0,.018-.03.038-.088.06a.579.579,0,0,1-.208.034.531.531,0,0,1-.389-.161,1.013,1.013,0,0,1-.161-.685v-.242a2.522,2.522,0,0,1-1,.873,3.091,3.091,0,0,1-1.389.309,2.437,2.437,0,0,1-1.625-.49,1.614,1.614,0,0,1-.577-1.3,1.679,1.679,0,0,1,1.107-1.625,9.1,9.1,0,0,1,3.336-.55h.134Zm-2.3,3.464a2.716,2.716,0,0,0,.913-.148,2.3,2.3,0,0,0,.725-.41,1.907,1.907,0,0,0,.483-.618,1.764,1.764,0,0,0,.174-.785v-.591l-.376.013a8.186,8.186,0,0,0-2.484.389,1.121,1.121,0,0,0-.832,1.087.931.931,0,0,0,.369.772,1.631,1.631,0,0,0,1.027.288" transform="translate(-42.204 -90.603)" fill="#fff"/>
    <path id="Trazado_411" data-name="Trazado 411" d="M102.569,159.412a.645.645,0,0,1,.235-.329.54.54,0,0,1,.289-.088.677.677,0,0,1,.369.107q.168.108.141.161l-3.182,8.216a.52.52,0,0,1-.188.255,1.116,1.116,0,0,1-.832,0,.517.517,0,0,1-.188-.255l-3.182-8.216q-.027-.054.141-.161a.7.7,0,0,1,.383-.107.6.6,0,0,1,.309.088.627.627,0,0,1,.241.329l2.726,7.357Z" transform="translate(-53.086 -87.897)" fill="#fff"/>
    <path id="Trazado_412" data-name="Trazado 412" d="M115.933,159.251a.5.5,0,0,1-.564-.577.516.516,0,0,1,.591-.577.5.5,0,0,1,.564.577.516.516,0,0,1-.591.577m-.322,7.954a.407.407,0,0,1-.107-.329v-5.665a.406.406,0,0,1,.107-.329.431.431,0,0,1,.282-.088h.094a.431.431,0,0,1,.282.088.407.407,0,0,1,.107.329v5.665a.408.408,0,0,1-.107.329.434.434,0,0,1-.282.087h-.094a.433.433,0,0,1-.282-.087" transform="translate(-63.779 -87.399)" fill="#fff"/>
    <path id="Trazado_413" data-name="Trazado 413" d="M124.345,163.89a1.152,1.152,0,0,1,.685.175.563.563,0,0,1,.242.483.532.532,0,0,1-.108.363q-.107.121-.134.094a1.29,1.29,0,0,0-.329-.195,1.21,1.21,0,0,0-.45-.073,1.229,1.229,0,0,0-.732.215,1.564,1.564,0,0,0-.49.591,3.179,3.179,0,0,0-.275.893,6.833,6.833,0,0,0-.087,1.134v2.51a.408.408,0,0,1-.107.329.433.433,0,0,1-.282.087h-.094a.433.433,0,0,1-.282-.087.408.408,0,0,1-.107-.329v-5.988c0-.017.029-.038.087-.06a.579.579,0,0,1,.208-.034.554.554,0,0,1,.4.161.984.984,0,0,1,.168.685v.389a1.68,1.68,0,0,1,1.692-1.342" transform="translate(-67.331 -90.603)" fill="#fff"/>
    <path id="Trazado_414" data-name="Trazado 414" d="M131.607,163.136a.468.468,0,0,1-.329-.087.355.355,0,0,1-.087-.262v-.081a.357.357,0,0,1,.087-.262.468.468,0,0,1,.329-.087h.591v-1.114a.409.409,0,0,1,.107-.329.433.433,0,0,1,.282-.087h.094a.406.406,0,0,1,.275.087.426.426,0,0,1,.1.329v1.114h1.705a.469.469,0,0,1,.329.087.357.357,0,0,1,.087.262v.081a.355.355,0,0,1-.087.262.469.469,0,0,1-.329.087h-1.705v3.638a2.039,2.039,0,0,0,.208,1.047.8.8,0,0,0,.745.336,1.217,1.217,0,0,0,.577-.128,1.339,1.339,0,0,0,.416-.342q.026-.027.161.074a.419.419,0,0,1,.134.356.711.711,0,0,1-.336.53,1.57,1.57,0,0,1-.98.262,1.66,1.66,0,0,1-1.363-.517,2.359,2.359,0,0,1-.423-1.524v-3.732Z" transform="translate(-72.526 -88.909)" fill="#fff"/>
    <path id="Trazado_415" data-name="Trazado 415" d="M146.642,170.413a2.5,2.5,0,0,1-1.3.322,2.829,2.829,0,0,1-1.108-.2,2.09,2.09,0,0,1-.792-.571,2.469,2.469,0,0,1-.477-.893,3.916,3.916,0,0,1-.161-1.155v-3.37a.406.406,0,0,1,.107-.329.431.431,0,0,1,.282-.088h.093a.431.431,0,0,1,.282.088.408.408,0,0,1,.107.329v3.316a2.256,2.256,0,0,0,.463,1.51,1.64,1.64,0,0,0,1.322.544,2.068,2.068,0,0,0,1.228-.376,2.444,2.444,0,0,0,.812-.98v-4.014a.406.406,0,0,1,.108-.329.431.431,0,0,1,.282-.088h.094a.431.431,0,0,1,.282.088.408.408,0,0,1,.107.329v5.988c0,.018-.029.038-.087.06a.58.58,0,0,1-.208.034.552.552,0,0,1-.4-.161.98.98,0,0,1-.168-.685v-.2a2.659,2.659,0,0,1-.88.832" transform="translate(-78.948 -90.735)" fill="#fff"/>
    <path id="Trazado_416" data-name="Trazado 416" d="M162.97,166.4a1.659,1.659,0,0,0-.463-1.269,1.876,1.876,0,0,0-1.336-.436,2.2,2.2,0,0,0-1.275.343,2.4,2.4,0,0,0-.765.839.826.826,0,0,1-.249-.074.533.533,0,0,1-.168-.154.458.458,0,0,1-.08-.282.8.8,0,0,1,.168-.423,1.968,1.968,0,0,1,.5-.483,3.183,3.183,0,0,1,.819-.4,3.454,3.454,0,0,1,1.121-.168,2.639,2.639,0,0,1,1.906.658,2.413,2.413,0,0,1,.685,1.826V170.4c0,.018-.03.038-.088.06a.579.579,0,0,1-.208.034.531.531,0,0,1-.389-.161,1.013,1.013,0,0,1-.161-.685v-.242a2.522,2.522,0,0,1-1,.873,3.091,3.091,0,0,1-1.389.309,2.437,2.437,0,0,1-1.625-.49,1.614,1.614,0,0,1-.577-1.3,1.679,1.679,0,0,1,1.107-1.625,9.1,9.1,0,0,1,3.336-.55h.134Zm-2.3,3.464a2.716,2.716,0,0,0,.913-.148,2.3,2.3,0,0,0,.725-.41,1.907,1.907,0,0,0,.483-.618,1.764,1.764,0,0,0,.174-.785v-.591l-.376.013a8.186,8.186,0,0,0-2.484.389,1.121,1.121,0,0,0-.832,1.087.93.93,0,0,0,.369.772,1.631,1.631,0,0,0,1.027.288" transform="translate(-87.563 -90.603)" fill="#fff"/>
    <path id="Trazado_417" data-name="Trazado 417" d="M174.71,167.2a.407.407,0,0,1-.107-.329V158.19q0-.027.087-.06a.607.607,0,0,1,.611.127.955.955,0,0,1,.174.685v7.934a.408.408,0,0,1-.107.329.434.434,0,0,1-.282.087h-.094a.433.433,0,0,1-.282-.087" transform="translate(-96.525 -87.399)" fill="#fff"/>
    <path id="Trazado_418" data-name="Trazado 418" d="M.558,129.122a1.947,1.947,0,0,1-.474-1.4V116.55a1.948,1.948,0,0,1,.474-1.4,1.721,1.721,0,0,1,1.307-.5H7a6.457,6.457,0,0,1,3.875.983,3.333,3.333,0,0,1,1.33,2.857,2.953,2.953,0,0,1-.682,2.024,4.045,4.045,0,0,1-2,1.145,4.311,4.311,0,0,1,2.452,1.365,3.6,3.6,0,0,1,.787,2.336,3.708,3.708,0,0,1-1.434,3.216,7.96,7.96,0,0,1-4.6,1.041H1.865a1.72,1.72,0,0,1-1.307-.5m5.748-8.177a2.7,2.7,0,0,0,1.782-.509,1.75,1.75,0,0,0,.6-1.411,1.653,1.653,0,0,0-.567-1.376,2.919,2.919,0,0,0-1.816-.451H3.438v3.748Zm.185,6.13a3.664,3.664,0,0,0,2.151-.474,1.837,1.837,0,0,0,.625-1.562,1.669,1.669,0,0,0-.648-1.457,3.7,3.7,0,0,0-2.1-.463H3.438v3.956Z" transform="translate(-0.046 -63.383)" fill="#fff"/>
    <path id="Trazado_419" data-name="Trazado 419" d="M34.942,124.761a2.806,2.806,0,0,0-1.828.532,3.563,3.563,0,0,0-.972,1.2c0,.016-.108.019-.324.012a3.063,3.063,0,0,1-.728-.127,1.773,1.773,0,0,1-.729-.416,1.109,1.109,0,0,1-.324-.856,1.913,1.913,0,0,1,.312-1.029,2.875,2.875,0,0,1,.948-.891,5.694,5.694,0,0,1,1.6-.636,9.262,9.262,0,0,1,2.255-.243,5.852,5.852,0,0,1,4,1.18,4.416,4.416,0,0,1,1.318,3.47v6.685c0,.078-.127.158-.382.243a2.663,2.663,0,0,1-.844.127,1.91,1.91,0,0,1-1.273-.428,2.127,2.127,0,0,1-.648-1.376,4.186,4.186,0,0,1-1.619,1.388,5.056,5.056,0,0,1-2.29.509,4.027,4.027,0,0,1-2.787-.9,3.245,3.245,0,0,1,.763-5.24,12.884,12.884,0,0,1,5.494-.96h.37a2.015,2.015,0,0,0-2.313-2.244m-.44,7.217a2.787,2.787,0,0,0,1.989-.717,2.4,2.4,0,0,0,.763-1.827v-.648l-.6.023a8.384,8.384,0,0,0-2.926.463,1.4,1.4,0,0,0-.983,1.342,1.2,1.2,0,0,0,.474.995,2.031,2.031,0,0,0,1.284.37" transform="translate(-16.376 -67.616)" fill="#fff"/>
    <path id="Trazado_420" data-name="Trazado 420" d="M58.328,138.465a2.086,2.086,0,0,1-.682-.116,2.537,2.537,0,0,1-.578-.278,2.033,2.033,0,0,1-.37-.3c-.085-.093-.119-.162-.1-.208l1.874-4.256a1.524,1.524,0,0,1-.648-.208,1.16,1.16,0,0,1-.416-.509l-3.886-9.022c-.015-.047.023-.123.116-.232a1.654,1.654,0,0,1,.382-.312,3.383,3.383,0,0,1,.578-.278,1.989,1.989,0,0,1,.706-.127,1.772,1.772,0,0,1,1.041.324,2.52,2.52,0,0,1,.787,1.3l2.452,6.454,2.175-6.431a2.407,2.407,0,0,1,.787-1.308,1.77,1.77,0,0,1,1.018-.335,1.985,1.985,0,0,1,.671.116,2.854,2.854,0,0,1,.578.278,2.346,2.346,0,0,1,.394.3c.093.093.131.162.116.208l-5.136,13.348a2.774,2.774,0,0,1-.844,1.261,1.716,1.716,0,0,1-1.006.335" transform="translate(-29.583 -67.787)" fill="#fff"/>
    <path id="Trazado_421" data-name="Trazado 421" d="M84.354,136.791a1.55,1.55,0,0,1-.405,1.226,1.523,1.523,0,0,1-1.029.347h-.347a1.632,1.632,0,0,1-1.075-.335,1.546,1.546,0,0,1-.4-1.237V122.819c0-.047.123-.119.37-.22a2.264,2.264,0,0,1,.856-.15,2.678,2.678,0,0,1,.648.081,1.509,1.509,0,0,1,.6.312,1.98,1.98,0,0,1,.474.6,2.762,2.762,0,0,1,.266.972,4.236,4.236,0,0,1,1.481-1.538,4.17,4.17,0,0,1,2.221-.567,5.261,5.261,0,0,1,2.116.416,4.782,4.782,0,0,1,1.654,1.18,5.351,5.351,0,0,1,1.076,1.85,7.962,7.962,0,0,1,0,4.87,5.455,5.455,0,0,1-1.076,1.874,4.946,4.946,0,0,1-1.665,1.215,5.171,5.171,0,0,1-2.151.439,4.005,4.005,0,0,1-3.609-2.059Zm0-7.935a2.688,2.688,0,0,0,.22,1.1,2.6,2.6,0,0,0,.6.855,2.686,2.686,0,0,0,.9.555,3.085,3.085,0,0,0,1.1.2,2.671,2.671,0,0,0,2.116-.914,4.024,4.024,0,0,0,0-4.811,2.645,2.645,0,0,0-2.094-.914,3.01,3.01,0,0,0-1.758.5,3.126,3.126,0,0,0-1.087,1.33Z" transform="translate(-44.83 -67.616)" fill="#fff"/>
    <path id="Trazado_422" data-name="Trazado 422" d="M114.988,134.153a6.765,6.765,0,0,1-2.452-.428,5.3,5.3,0,0,1-3.123-3.077,6.454,6.454,0,0,1-.44-2.417,6.367,6.367,0,0,1,.44-2.406,5.363,5.363,0,0,1,1.238-1.862,5.712,5.712,0,0,1,1.92-1.215,6.7,6.7,0,0,1,2.464-.44,6.52,6.52,0,0,1,2.44.44,5.639,5.639,0,0,1,1.885,1.215,5.433,5.433,0,0,1,1.226,1.874,6.454,6.454,0,0,1,.44,2.417,6.366,6.366,0,0,1-.44,2.406,5.326,5.326,0,0,1-3.123,3.065,6.832,6.832,0,0,1-2.475.428m.023-2.568a3.063,3.063,0,0,0,1.249-.254,3.028,3.028,0,0,0,.995-.694,3.246,3.246,0,0,0,.66-1.053,3.577,3.577,0,0,0,.243-1.33,3.909,3.909,0,0,0-.231-1.365,3.213,3.213,0,0,0-.648-1.076,2.967,2.967,0,0,0-.995-.705,3.308,3.308,0,0,0-2.544,0,2.963,2.963,0,0,0-.995.705,3.407,3.407,0,0,0-.659,1.064,3.859,3.859,0,0,0,0,2.695,3.232,3.232,0,0,0,.659,1.064,3.03,3.03,0,0,0,.995.694,3.117,3.117,0,0,0,1.272.254" transform="translate(-60.244 -67.616)" fill="#fff"/>
    <path id="Trazado_423" data-name="Trazado 423" d="M141.262,124.368a3.3,3.3,0,0,1,1.029-1.515,2.68,2.68,0,0,1,1.723-.544,2.211,2.211,0,0,1,1.55.509,1.79,1.79,0,0,1,.555,1.388,2,2,0,0,1-.15.821,1.95,1.95,0,0,1-.347.544,1.374,1.374,0,0,1-.359.289q-.162.081-.185.058a1.841,1.841,0,0,0-.636-.4,2.287,2.287,0,0,0-.844-.15,1.853,1.853,0,0,0-1.747.971,5.528,5.528,0,0,0-.543,2.684v3.377a1.512,1.512,0,0,1-.405,1.215,1.557,1.557,0,0,1-1.029.335h-.347a1.67,1.67,0,0,1-1.075-.324,1.508,1.508,0,0,1-.4-1.226v-9.577c0-.047.123-.119.37-.22a2.272,2.272,0,0,1,.856-.15,2.661,2.661,0,0,1,.648.081,1.489,1.489,0,0,1,.59.3,2.076,2.076,0,0,1,.474.59,2.547,2.547,0,0,1,.278.948" transform="translate(-76.316 -67.616)" fill="#fff"/>
    <path id="Trazado_424" data-name="Trazado 424" d="M158.395,121.7q-1.365,0-1.365-1.134v-.208q0-1.2,1.365-1.2h.555v-1.435a1.6,1.6,0,0,1,.393-1.191,1.5,1.5,0,0,1,1.087-.381h.278a1.311,1.311,0,0,1,1.457,1.573v1.435h1.966a1.45,1.45,0,0,1,1.006.289,1.125,1.125,0,0,1,.313.867v.185q0,1.2-1.365,1.2H162.1v4.812a2.2,2.2,0,0,0,.289,1.249,1.084,1.084,0,0,0,.96.416,1.57,1.57,0,0,0,.856-.22,2.385,2.385,0,0,0,.6-.543c.015-.015.065,0,.15.046a1,1,0,0,1,.266.231,1.85,1.85,0,0,1,.254.405,1.364,1.364,0,0,1,.115.59,1.778,1.778,0,0,1-.8,1.457,4.354,4.354,0,0,1-4.951-.37,4.15,4.15,0,0,1-.89-2.892V121.7Z" transform="translate(-86.81 -64.212)" fill="#fff"/>
    <path id="Trazado_425" data-name="Trazado 425" d="M9.654,53.85a6.99,6.99,0,0,1,2.421-1.7,7.743,7.743,0,0,1,3.083-.605,7.343,7.343,0,0,1,4.669,1.325A7.98,7.98,0,0,1,22.3,56.213c.038.077.3.086.778.029a4.693,4.693,0,0,0,1.528-.49,5.213,5.213,0,0,0,1.5-1.153,2.775,2.775,0,0,0,.691-1.96,5.335,5.335,0,0,0-.662-2.305,7.859,7.859,0,0,0-2.1-2.507,12.326,12.326,0,0,0-3.717-1.988,16.564,16.564,0,0,0-5.5-.807,15.7,15.7,0,0,0-5.936,1.1,14.409,14.409,0,0,0-4.7,3.026,13.355,13.355,0,0,0-3.084,4.639,16.643,16.643,0,0,0,0,11.872,13.643,13.643,0,0,0,7.723,7.723,15.868,15.868,0,0,0,5.994,1.1,16.1,16.1,0,0,0,5.418-.807,12.76,12.76,0,0,0,3.717-1.988,8.2,8.2,0,0,0,2.162-2.478,4.989,4.989,0,0,0,.691-2.277,2.946,2.946,0,0,0-.691-2.075,5.12,5.12,0,0,0-1.528-1.153,4.446,4.446,0,0,0-1.527-.461c-.461-.038-.712-.019-.749.058A7.876,7.876,0,0,1,19.8,66.645a7.359,7.359,0,0,1-4.639,1.325,7.742,7.742,0,0,1-3.083-.605,6.978,6.978,0,0,1-2.421-1.7,7.949,7.949,0,0,1-1.585-2.623,9.3,9.3,0,0,1-.577-3.314,9.072,9.072,0,0,1,.577-3.285A8.027,8.027,0,0,1,9.654,53.85" transform="translate(0 -24.895)" fill="#0090df"/>
    <path id="Trazado_426" data-name="Trazado 426" d="M146.543,46.326l-4.908,1.809,3.115,3.618q.4-.037.8-.037a7.338,7.338,0,0,1,4.669,1.326,7.976,7.976,0,0,1,2.478,3.343q.056.115.778.029a4.7,4.7,0,0,0,1.527-.49,5.209,5.209,0,0,0,1.5-1.153,2.774,2.774,0,0,0,.692-1.96,5.333,5.333,0,0,0-.663-2.306A7.844,7.844,0,0,0,154.43,48a12.322,12.322,0,0,0-3.717-1.988,14.1,14.1,0,0,0-3.115-.669,1.879,1.879,0,0,1-1.056.984" transform="translate(-78.299 -25.066)" fill="#0090df"/>
    <path id="Trazado_427" data-name="Trazado 427" d="M141.086,75.145a4.434,4.434,0,0,0-1.527-.461c-.461-.038-.711-.019-.749.058a7.867,7.867,0,0,1-2.507,3.343,7.355,7.355,0,0,1-4.639,1.325,7.75,7.75,0,0,1-3.083-.6,6.984,6.984,0,0,1-2.421-1.7,7.954,7.954,0,0,1-1.585-2.623A9.3,9.3,0,0,1,124,71.169a10.133,10.133,0,0,1,.085-1.261l-3.668-4.182-2.605,4.4a1.889,1.889,0,0,1-1.243.888l-.059.1c0,.019,0,.037,0,.056a15.691,15.691,0,0,0,1.095,5.937,13.642,13.642,0,0,0,7.723,7.723,15.864,15.864,0,0,0,5.993,1.095,16.1,16.1,0,0,0,5.418-.807,12.781,12.781,0,0,0,3.717-1.988,8.2,8.2,0,0,0,2.162-2.478,4.983,4.983,0,0,0,.691-2.277,2.944,2.944,0,0,0-.691-2.075,5.113,5.113,0,0,0-1.528-1.153" transform="translate(-64.407 -36.335)" fill="#0090df"/>
    <path id="Trazado_428" data-name="Trazado 428" d="M107.262,42.81l-5.628-19c-.428-1.447.668-2.192,2.035-1.553l17.891,8.4a1,1,0,0,1-.078,1.838l-3.875,1.428A1,1,0,0,0,117.2,35.5l4.015,4.664a2.236,2.236,0,0,1-.257,3.171l-1.057.888a2.237,2.237,0,0,1-3.119-.238l-4.028-4.592a1,1,0,0,0-1.607.149l-2.069,3.493a1,1,0,0,1-1.813-.225" transform="translate(-56.134 -12.175)" fill="#fff"/>
    <path id="Trazado_429" data-name="Trazado 429" d="M99.232,11.547A10.31,10.31,0,0,0,95.78,2.52,10.3,10.3,0,0,0,80.271,15.727a10.333,10.333,0,0,0,9.3,4.838c1.031-.067,1.038-1.681,0-1.613A8.759,8.759,0,0,1,80.715,7.747a8.688,8.688,0,0,1,16.9,3.8c-.127,1.028,1.488,1.019,1.613,0" transform="translate(-43.54 0)" fill="#fff"/>
    <path id="Trazado_430" data-name="Trazado 430" d="M100.345,15.683A5.934,5.934,0,1,0,89.221,18.56,6.02,6.02,0,0,0,94.2,21.608c.793.042.791-1.192,0-1.234a4.7,4.7,0,1,1,4.908-4.691.617.617,0,0,0,1.234,0" transform="translate(-48.925 -5.393)" fill="#fff"/>
    <path id="Trazado_431" data-name="Trazado 431" d="M68.883,21.092a12.851,12.851,0,0,1,.077-1.371,5.816,5.816,0,0,0-.949-.079,6.049,6.049,0,0,0-2.133.346q-.923.346-.923.576v35.5a3.7,3.7,0,0,0,1.038,3.055,4.184,4.184,0,0,0,2.651.807h.864a3.882,3.882,0,0,0,2.565-.836,3.768,3.768,0,0,0,1.008-3.026v-25.6a12.562,12.562,0,0,1-4.2-9.376" transform="translate(-35.909 -10.859)" fill="#0090df"/>
    <path id="Trazado_432" data-name="Trazado 432" d="M93.116,49.824a4.941,4.941,0,0,0-.453,2.284V72.786A3.645,3.645,0,0,0,93.7,75.813a4.211,4.211,0,0,0,2.651.8h.864a3.907,3.907,0,0,0,2.565-.828,3.716,3.716,0,0,0,1.008-3V59.707l-2.8-9.379c-.389.036-.783.059-1.183.059a12.488,12.488,0,0,1-3.694-.563" transform="translate(-51.226 -27.544)" fill="#0090df"/>
  </g>
</svg>
