<svg xmlns="http://www.w3.org/2000/svg" xmlns:xlink="http://www.w3.org/1999/xlink" width="63.643" height="40" viewBox="0 0 63.643 40">
  <defs>
    <clipPath id="clip-path">
      <rect id="Rectángulo_153" data-name="Rectángulo 153" width="63.643" height="40" fill="none"/>
    </clipPath>
  </defs>
  <g id="Grupo_68" data-name="Grupo 68" transform="translate(0 0)">
    <g id="Grupo_64" data-name="Grupo 64" transform="translate(0 0)" clip-path="url(#clip-path)">
      <path id="Trazado_455" data-name="Trazado 455" d="M7.787,52.144A5.638,5.638,0,0,1,9.74,50.773a6.246,6.246,0,0,1,2.487-.488,5.923,5.923,0,0,1,3.766,1.069,6.437,6.437,0,0,1,2,2.7c.03.062.24.07.628.023a3.786,3.786,0,0,0,1.232-.395,4.205,4.205,0,0,0,1.209-.93,2.238,2.238,0,0,0,.558-1.581,4.3,4.3,0,0,0-.534-1.859,6.34,6.34,0,0,0-1.7-2.023,9.943,9.943,0,0,0-3-1.6,13.361,13.361,0,0,0-4.44-.651,12.66,12.66,0,0,0-4.788.884,11.623,11.623,0,0,0-3.789,2.441A10.773,10.773,0,0,0,.883,52.1a13.425,13.425,0,0,0,0,9.577,11.005,11.005,0,0,0,6.23,6.23,12.8,12.8,0,0,0,4.835.883,12.986,12.986,0,0,0,4.37-.651,10.293,10.293,0,0,0,3-1.6,6.617,6.617,0,0,0,1.744-2,4.024,4.024,0,0,0,.558-1.836,2.376,2.376,0,0,0-.558-1.674,4.13,4.13,0,0,0-1.232-.93,3.586,3.586,0,0,0-1.232-.372c-.372-.03-.574-.015-.6.047a6.353,6.353,0,0,1-2.022,2.7,5.936,5.936,0,0,1-3.742,1.069,6.245,6.245,0,0,1-2.487-.488,5.629,5.629,0,0,1-1.953-1.371,6.412,6.412,0,0,1-1.278-2.116,7.5,7.5,0,0,1-.465-2.673,7.318,7.318,0,0,1,.465-2.649,6.475,6.475,0,0,1,1.278-2.092" transform="translate(0 -28.788)" fill="#0090df"/>
      <path id="Trazado_456" data-name="Trazado 456" d="M145.594,46.136l-3.959,1.459,2.513,2.919q.319-.03.649-.03a5.921,5.921,0,0,1,3.766,1.069,6.437,6.437,0,0,1,2,2.7c.03.062.239.069.628.023a3.774,3.774,0,0,0,1.232-.4,4.2,4.2,0,0,0,1.209-.93,2.238,2.238,0,0,0,.558-1.581,4.3,4.3,0,0,0-.535-1.859,6.329,6.329,0,0,0-1.7-2.022,9.947,9.947,0,0,0-3-1.6,11.357,11.357,0,0,0-2.512-.539,1.518,1.518,0,0,1-.852.794" transform="translate(-90.545 -28.986)" fill="#0090df"/>
      <path id="Trazado_457" data-name="Trazado 457" d="M136.334,73.324a3.576,3.576,0,0,0-1.232-.372c-.372-.03-.574-.015-.6.047a6.346,6.346,0,0,1-2.022,2.7,5.933,5.933,0,0,1-3.742,1.069,6.252,6.252,0,0,1-2.487-.488,5.634,5.634,0,0,1-1.953-1.371,6.416,6.416,0,0,1-1.278-2.116,7.5,7.5,0,0,1-.465-2.673,8.175,8.175,0,0,1,.069-1.017l-2.959-3.373-2.1,3.549a1.524,1.524,0,0,1-1,.716l-.048.08c0,.015,0,.03,0,.045a12.657,12.657,0,0,0,.883,4.789,11,11,0,0,0,6.23,6.23,12.8,12.8,0,0,0,4.835.883,12.985,12.985,0,0,0,4.37-.651,10.31,10.31,0,0,0,3-1.6,6.617,6.617,0,0,0,1.744-2,4.02,4.02,0,0,0,.558-1.836,2.375,2.375,0,0,0-.558-1.674,4.124,4.124,0,0,0-1.232-.93" transform="translate(-74.481 -42.018)" fill="#0090df"/>
      <path id="Trazado_458" data-name="Trazado 458" d="M106.156,38.791l-4.54-15.329c-.345-1.167.539-1.769,1.641-1.253l14.432,6.772a.8.8,0,0,1-.063,1.483L114.5,31.616a.8.8,0,0,0-.331,1.279l3.239,3.762a1.8,1.8,0,0,1-.207,2.558l-.853.716a1.8,1.8,0,0,1-2.516-.192l-3.249-3.7a.8.8,0,0,0-1.3.12l-1.669,2.818a.8.8,0,0,1-1.462-.182" transform="translate(-64.913 -14.079)" fill="#fff"/>
      <path id="Trazado_459" data-name="Trazado 459" d="M95.274,9.315a8.316,8.316,0,0,0-2.784-7.282,8.308,8.308,0,0,0-12.51,10.654,8.335,8.335,0,0,0,7.505,3.9c.832-.054.838-1.356,0-1.3a7.065,7.065,0,0,1-7.148-9.039A7.008,7.008,0,0,1,93.972,9.315c-.1.829,1.2.822,1.3,0" transform="translate(-50.349 0)" fill="#fff"/>
      <path id="Trazado_460" data-name="Trazado 460" d="M98.054,14.536A4.788,4.788,0,1,0,93.1,19.315c.64.034.638-.962,0-1a3.789,3.789,0,1,1,3.959-3.784.5.5,0,0,0,1,0" transform="translate(-56.576 -6.235)" fill="#fff"/>
      <path id="Trazado_461" data-name="Trazado 461" d="M68.124,20.812a10.362,10.362,0,0,1,.062-1.106,4.692,4.692,0,0,0-.766-.064,4.88,4.88,0,0,0-1.72.279q-.745.279-.744.465V49.024a2.982,2.982,0,0,0,.837,2.464,3.375,3.375,0,0,0,2.139.651h.7a3.131,3.131,0,0,0,2.069-.674,3.04,3.04,0,0,0,.813-2.441V28.375a10.133,10.133,0,0,1-3.387-7.563" transform="translate(-41.525 -12.557)" fill="#0090df"/>
      <path id="Trazado_462" data-name="Trazado 462" d="M93.028,49.824a3.985,3.985,0,0,0-.365,1.842v16.68a2.94,2.94,0,0,0,.837,2.442,3.4,3.4,0,0,0,2.139.645h.7a3.151,3.151,0,0,0,2.069-.668,3,3,0,0,0,.813-2.419V57.8L96.962,50.23c-.314.029-.632.048-.954.048a10.073,10.073,0,0,1-2.98-.454" transform="translate(-59.238 -31.852)" fill="#0090df"/>
    </g>
  </g>
</svg>
