<svg xmlns="http://www.w3.org/2000/svg" xmlns:xlink="http://www.w3.org/1999/xlink" width="339.69" height="224.537" viewBox="0 0 339.69 224.537">
  <defs>
    <linearGradient id="linear-gradient" x1="0.5" y1="0.035" x2="0.5" y2="0.97" gradientUnits="objectBoundingBox">
      <stop offset="0" stop-color="#ffc121"/>
      <stop offset="0.23" stop-color="#f4b044"/>
      <stop offset="0.74" stop-color="#db879c"/>
      <stop offset="1" stop-color="#ce72cc"/>
    </linearGradient>
    <linearGradient id="linear-gradient-2" x1="0.5" x2="0.5" y2="1" gradientUnits="objectBoundingBox">
      <stop offset="0" stop-color="#fff"/>
      <stop offset="1" stop-color="#79bdd2"/>
    </linearGradient>
  </defs>
  <g id="Grupo_511" data-name="Grupo 511" transform="translate(-559 -340)">
    <g id="Grupo_442" data-name="Grupo 442" transform="translate(-2297.31 -2069)">
      <path id="Trazado_813" data-name="Trazado 813" d="M338.411,199.714a80.679,80.679,0,0,0-79.565-94.987,79.964,79.964,0,0,0-14.357,1.32A130.837,130.837,0,0,0,0,171.016a110.181,110.181,0,0,0,3.606,28.689H338.411Z" transform="translate(2856.31 2389.996)" fill-rule="evenodd" fill="url(#linear-gradient)"/>
      <g id="mujer-bayport" transform="translate(2857.006 2408.992)">
        <g id="b">
          <g id="c">
            <g id="Grupo_443" data-name="Grupo 443">
              <g id="Grupo_442-2" data-name="Grupo 442">
                <path id="Trazado_794" data-name="Trazado 794" d="M272.4,191.6l14.9,14.3s8.1,7.5-4.5,7.2c-12.6-.2-89.7,0-89.7,0H147l-21.6-21.6,147,.1Z" fill="#a6cad9" opacity="0.2"/>
                <path id="Trazado_795" data-name="Trazado 795" d="M72.6,208s17.3,3.4,25.8,1.6a18.043,18.043,0,0,1,6.9-7l20.4,8.9S128,223,142,222.1c11.9,4,17.5,2.9,20.1-1.9,2.5-4.8-56.4-41.2-56.7-41.2-.4,0-32.8,29-32.8,29Z" fill="#a6cad9" opacity="0.2"/>
                <path id="Trazado_796" data-name="Trazado 796" d="M196.7,149.2,209,175.7l12.2-29.5-5.4-10.1a54.853,54.853,0,0,1-19.1,13.1Z" fill="#caebf8"/>
                <path id="Trazado_797" data-name="Trazado 797" d="M169.5,186.9h39.4l-12.7,19.3Z" fill="#caebf8"/>
                <path id="Trazado_798" data-name="Trazado 798" d="M186.8,190.3h39.4l-12.7,19.3Z" fill="#f5fdff"/>
                <path id="Trazado_799" data-name="Trazado 799" d="M85,182.8c-1.2,6.5,43.1,26.8,43.1,26.8s4.1,12.6,16.7,10.6c6.5,2.3,16.6,4.8,21.1.3s-20.7-21.7-20.7-21.7l-36-24.8,5.1-16.1h0v-.1a48.514,48.514,0,0,1-20.4-6.5c-4.4,14.6-8.4,28.6-8.9,31.5Z" fill="#caebf8"/>
                <path id="Trazado_800" data-name="Trazado 800" d="M215.5,135.7,195.1,204l-25.5-17.1v5l24.7,17.7h92.5s3.3.6,5.5-6.1c2.2-6.6,18-64.6,18-64.6s1.4-6.9-7.2-6.9-81.1-.9-81.1-.9-5.2-.1-6.5,4.6Z" fill="#20caf2"/>
                <path id="Trazado_801" data-name="Trazado 801" d="M215.8,136.2l-12.9-24.3-29.7-11.3c-4,12.4-7.6,21.8-16.3,24.9-10.7-2-14.6-15.8-21.7-25.3-10.1,5-28,14-29.3,14.7-1,.6-6.8,18.9-12.1,36.5a47.671,47.671,0,0,0,19.8,6.4,1.268,1.268,0,0,1,.6.1l.6-1.9,4.8,24h72.2l2.7-35.4,2.1,4.6a54.479,54.479,0,0,0,19.2-13Z" fill="#20caf2"/>
                <path id="Trazado_802" data-name="Trazado 802" d="M215.8,136.2l-12.9-24.3-33.7-11.3c-4,12.4-3.6,21.8-12.3,24.9-10.7-2-14.6-15.8-21.7-25.3-10.1,5-28,14-29.3,14.7-1,.6-6.8,18.9-12.1,36.5a47.671,47.671,0,0,0,19.8,6.4,1.268,1.268,0,0,1,.6.1l.6-1.9,4.8,24h72.2l2.7-35.4,2.1,4.6a54.479,54.479,0,0,0,19.2-13Z" fill="#20caf2"/>
                <path id="Trazado_803" data-name="Trazado 803" d="M164.3,4.3c-8-6.3-23.5-8.4-37.9,13.3,0,0-10,20.9-10.6,31.8s-2.6,61.8-2.6,61.8L135,100.3l33.8.5L200,110.9a10.194,10.194,0,0,0,.3-2.7c-1.2-14.1-10.8-59.4-9.1-67.5,3-14.5-11.7-24.7-26.9-36.4Z" fill="#2795b3"/>
                <path id="Trazado_804" data-name="Trazado 804" d="M148.3,100.4c2.2-2.8,3.8-5,3.8-5L135.2,52.5c-6.3,12.4-6.6,30.2-5.9,50.6l5.9-2.9Z" fill="#207c91"/>
                <path id="Trazado_805" data-name="Trazado 805" d="M156.9,125.5c6.7,1.4,16.5-18.3,13.1-24.3-3-5.2-1.2-22.4-1.2-22.4L142,72.2l-1,17.6s-1.8,8.4-5.8,10.4C142.3,109.8,146.2,123.5,156.9,125.5Z" fill="#caebf8"/>
                <path id="Trazado_806" data-name="Trazado 806" d="M141.3,82.6c3.4,5.6,11.6,10.6,11.6,10.6s8.3,4.1,15.3-4l.5-10.4-26.9-4.3Z" fill="#a3d8e8"/>
                <path id="Trazado_807" data-name="Trazado 807" d="M157.7,20.1c-5.6,8.5-22.5,27-22.5,44.3,0,14.3,25.6,24.8,25.6,24.8s10.8-3.2,17-22.5c1.2-8.9,0-28.7,0-28.7L157.7,20.1Z" fill="#caebf8"/>
                <path id="Trazado_808" data-name="Trazado 808" d="M129.7,180c.2-5.3-.1-17-3.6-21.1-4.7-5.4-17.8-42.8-18.3-42.8l3.1,17.2-3,23.5a53.957,53.957,0,0,0,5.8.9,1.268,1.268,0,0,1,.6.1l.6-1.9,4.8,24,10,.1Z" fill="#30accf"/>
                <path id="Trazado_809" data-name="Trazado 809" d="M114.2,157.9c-2.2-.2-4.3-.6-6.4-1h0l-5.4,18.2s3.9-1.9,6.7-1l5.1-16.2Z" fill="#bcdbe7"/>
                <path id="Trazado_810" data-name="Trazado 810" d="M70.4,167.2,76,208H96.1l7.3-42.1,1.9-1-5.5-7.7H72.2l-4,8.7Z" fill="#fdc400"/>
                <path id="Trazado_811" data-name="Trazado 811" d="M72.6,166l27.2,4.4s-7.4,31.3-9.1,37.6h5.4l7.3-42.1,1.9-1-5.6-7.7.4,8-27.5.8Z" fill="#f7a51c"/>
                <path id="Trazado_812" data-name="Trazado 812" d="M200.6,116.8l-10,28.8s.8,15,.4,19.7c-.4,3.9-3.4,14.7-3.4,14.7h4.2s7.5-8.1,8.2-11.8c1.2-6-5.5-23.6-5.5-23.6l2.1,4.6,4-1.8V116.8Z" fill="#30accf"/>
                <path id="r" d="M155.4,42.4c2.4-1.5,8.4-3,10.2-.2,0,0,.3,1.4-1.9,1.4q-3.3-.3-6.6-.9c-.8,0-1.4.1-1.7-.3Z" fill="#2795b3"/>
                <path id="s" d="M174.7,44.5c-.4.7-.5,1.2.5,1.7s3.2,1.1,4.1,1.8,2,1,1.2-.2-1.1-2.6-2.2-2.8-3.6-.5-3.6-.5Z" fill="#2795b3"/>
                <path id="t" d="M168.8,47.3c1.2,4.2-1.1,9.2,0,12.1l.4,1.3s.3,1.3-.1,1.8a3.309,3.309,0,0,1-4.1.2,3.41,3.41,0,0,1-1.7-2.6c.1-.1,4.5-13.3,5.5-12.8Z" fill="#f5fdff"/>
                <path id="u" d="M159.4,48.1c-.7,0-1.1-.1-1.8,2.5s.9,1.9.9,1.9.9.6,1.4-1.9.8-2.4-.5-2.5Z" fill="#2795b3"/>
                <path id="v" d="M175.1,50.7c-.6,0-.9-.1-1.5,2.1s.8,1.6.8,1.6.8.5,1.1-1.6S176.2,50.8,175.1,50.7Z" fill="#2795b3"/>
                <path id="w" d="M150.6,61.9c1.8,1.5,11,7.6,16.4,7,0,0-3.8,7.6-9.6,6.5s-8.8-15.1-6.8-13.5Z" fill="#2795b3"/>
                <path id="x" d="M164.8,69.3c-6.5,4.8-10.8-2-12.2-5.2C152.5,64.1,159,69,164.8,69.3Z" fill="#f5fdff"/>
                <path id="y" d="M138.3,46.4c-4.7-3.4-8.6-4.7-11.7-2.9,0,0-.9,10.7.1,12.2s10.1,4.8,10.1,4.8l1.5-14.1Z" fill="#caebf8"/>
              </g>
            </g>
          </g>
        </g>
      </g>
    </g>
    <circle id="Elipse_56" data-name="Elipse 56" cx="36" cy="36" r="36" transform="translate(564.69 341.788)" fill="url(#linear-gradient-2)"/>
    <text id="_" data-name="" transform="translate(564.69 404.788)" fill="#0049ac" font-size="72" font-family="FontAwesome6Free-Regular, 'Font Awesome \36  Free'"><tspan x="0" y="0"></tspan></text>
  </g>
</svg>
